<?xml version="1.0" standalone="no"?>
<!DOCTYPE svg PUBLIC "-//W3C//DTD SVG 20010904//EN"
 "http://www.w3.org/TR/2001/REC-SVG-20010904/DTD/svg10.dtd">
<svg version="1.0" xmlns="http://www.w3.org/2000/svg"
 width="700.000000pt" height="700.000000pt" viewBox="0 0 700.000000 700.000000"
 preserveAspectRatio="xMidYMid meet">
<metadata>
Created by potrace 1.14, written by Peter Selinger 2001-2017
</metadata>
<g transform="translate(0.000000,700.000000) scale(0.100000,-0.100000)"
fill="#000000" stroke="none">
<path d="M1700 6293 c0 -16 230 -2130 236 -2165 l6 -38 189 0 c104 0 189 3
189 7 0 11 280 2137 286 2171 l6 32 -145 0 -146 0 -6 -32 c-13 -77 -70 -644
-119 -1173 -32 -342 -55 -556 -59 -535 -4 19 -16 168 -27 330 -25 348 -48 628
-90 1063 -16 175 -30 325 -30 333 0 11 -26 14 -145 14 -80 0 -145 -3 -145 -7z"/>
<path d="M2710 6190 l0 -110 125 0 125 0 0 110 0 110 -125 0 -125 0 0 -110z"/>
<path d="M3365 5760 c-82 -13 -161 -54 -190 -98 -13 -21 -32 -66 -42 -102 -16
-59 -18 -119 -18 -645 0 -570 0 -581 22 -650 27 -85 63 -126 141 -157 51 -20
75 -22 217 -23 302 0 357 48 378 330 6 78 8 149 4 158 -5 15 -23 17 -130 17
l-124 0 -7 -71 c-11 -124 -44 -169 -124 -169 -57 0 -97 22 -111 61 -7 19 -11
108 -11 220 l0 189 256 0 257 0 -6 343 c-4 276 -8 354 -21 402 -31 109 -70
150 -169 180 -63 19 -243 27 -322 15z m217 -279 l33 -29 3 -181 4 -181 -126 0
-126 0 0 170 c0 227 11 249 122 250 50 0 62 -4 90 -29z"/>
<path d="M2710 4920 l0 -830 125 0 125 0 0 830 0 830 -125 0 -125 0 0 -830z"/>
<path d="M3910 5745 c0 -6 219 -1573 226 -1617 l6 -38 143 0 144 0 6 33 c37
223 61 387 100 677 58 443 58 443 63 405 1 -16 19 -165 38 -330 31 -264 52
-423 95 -707 l11 -78 139 0 c136 0 139 0 144 23 3 12 55 375 115 807 61 432
113 795 115 808 5 22 5 22 -120 22 -69 0 -125 -2 -125 -4 0 -2 -11 -86 -24
-187 -24 -174 -61 -488 -90 -754 -7 -66 -15 -113 -19 -105 -3 8 -24 143 -47
300 -22 157 -59 385 -80 508 -22 123 -40 227 -40 233 0 5 -52 9 -124 9 l-123
0 -31 -197 c-33 -206 -80 -541 -107 -747 -14 -109 -25 -159 -25 -110 0 65
-115 938 -135 1032 -5 21 -9 22 -130 22 -69 0 -125 -2 -125 -5z"/>
<path d="M830 3963 c-375 -64 -653 -359 -691 -735 -6 -67 -9 -411 -7 -969 4
-845 4 -866 25 -940 67 -240 218 -427 427 -529 191 -94 -126 -85 2881 -88
2900 -3 2733 -6 2881 54 115 46 185 93 279 188 141 143 215 295 235 488 14
130 13 1682 -1 1805 -22 200 -97 353 -243 498 -101 101 -207 164 -346 207
l-75 23 -2670 1 c-1468 1 -2681 -1 -2695 -3z m307 -522 c29 -13 71 -43 94 -68
74 -80 99 -167 106 -370 l6 -153 -162 0 -161 0 0 98 c0 89 -2 101 -25 133 -28
38 -78 69 -111 69 -35 0 -88 -42 -112 -90 l-23 -45 3 -670 3 -670 24 -42 c33
-58 86 -83 174 -83 l67 0 0 470 0 470 160 0 160 0 0 -624 0 -624 -226 -7
c-251 -8 -399 -3 -457 16 -83 28 -153 114 -191 238 -20 64 -20 93 -24 825 -3
826 -1 861 53 972 41 83 114 146 205 175 14 4 106 7 205 6 165 -2 184 -4 232
-26z m1804 -544 c83 -20 140 -55 167 -105 42 -75 51 -169 52 -514 l0 -318
-256 0 -256 0 4 -198 c3 -223 9 -241 73 -262 104 -34 175 43 175 190 l0 40
131 0 132 0 -6 -142 c-8 -211 -42 -294 -135 -331 -62 -25 -197 -40 -296 -34
-159 11 -246 49 -285 125 -40 78 -42 132 -39 752 3 539 5 599 21 639 36 91 96
140 198 160 69 14 258 12 320 -2z m891 2 c64 -13 129 -49 152 -84 31 -47 47
-139 49 -282 l2 -138 -127 -3 -128 -3 0 78 c0 101 -19 143 -75 161 -48 16
-100 4 -132 -30 -39 -43 -55 -151 -33 -230 14 -48 49 -77 211 -168 234 -132
262 -173 280 -393 13 -158 1 -359 -27 -439 -20 -60 -68 -102 -142 -125 -83
-26 -335 -26 -410 0 -133 47 -170 127 -179 395 l-6 162 132 0 131 0 0 -96 c0
-79 4 -103 21 -133 26 -47 61 -72 108 -78 86 -12 115 37 116 192 0 172 -1 174
-234 300 -79 43 -158 94 -177 113 -69 72 -101 224 -91 442 11 236 55 321 186
356 58 16 303 18 373 3z m870 0 c64 -13 129 -49 152 -84 31 -47 48 -142 49
-284 l2 -136 -127 -3 -128 -3 0 78 c0 101 -19 143 -75 161 -101 34 -175 -42
-175 -178 0 -114 22 -139 220 -249 231 -130 263 -174 282 -395 8 -103 8 -169
0 -265 -18 -198 -45 -251 -151 -293 -49 -20 -75 -22 -216 -23 -130 0 -170 3
-213 18 -133 47 -169 126 -179 395 l-6 162 132 0 131 0 0 -96 c0 -80 4 -103
21 -134 35 -63 119 -97 170 -70 40 22 54 68 54 185 0 172 -1 173 -234 301 -80
43 -159 94 -178 113 -67 69 -100 229 -90 441 12 236 56 321 186 356 58 16 303
18 373 3z m909 -17 c147 -58 169 -140 169 -639 l0 -283 -255 0 -255 0 0 -185
c0 -210 7 -243 61 -270 41 -22 103 -15 135 16 28 26 40 63 49 147 l7 62 129 0
129 0 0 -78 c0 -187 -36 -327 -96 -369 -59 -42 -139 -58 -289 -57 -178 0 -241
17 -301 78 -76 80 -77 87 -82 691 -2 347 0 562 8 624 27 234 110 294 395 288
115 -3 150 -8 196 -25z m858 18 c41 -12 86 -52 111 -100 32 -64 40 -136 40
-370 l0 -230 -105 0 -105 0 0 165 c0 176 -7 212 -50 250 -16 15 -36 20 -76 20
-45 0 -58 -4 -81 -28 l-28 -27 -5 -673 -5 -672 -127 -3 -128 -3 0 831 0 830
120 0 120 0 1 -72 c0 -71 0 -72 17 -48 72 109 193 161 301 130z m-4717 -647
c3 -588 4 -641 21 -670 23 -43 70 -67 115 -59 43 7 70 30 93 81 17 37 19 80
19 663 l0 622 130 0 130 0 -2 -827 -3 -828 -127 -3 -128 -3 0 85 0 84 -62 -62
c-149 -148 -303 -155 -384 -18 -56 93 -57 113 -61 875 l-4 697 130 0 130 0 3
-637z"/>
<path d="M2723 2649 c-60 -17 -68 -43 -71 -236 l-4 -173 126 0 126 0 0 160 c0
188 -9 222 -64 245 -40 17 -66 18 -113 4z"/>
<path d="M5333 2645 c-55 -24 -63 -54 -63 -240 l0 -165 126 0 126 0 -4 173
c-4 197 -11 218 -75 236 -49 14 -71 13 -110 -4z"/>
</g>
</svg>
