<?xml version="1.0" standalone="no"?>
<!DOCTYPE svg PUBLIC "-//W3C//DTD SVG 20010904//EN"
 "http://www.w3.org/TR/2001/REC-SVG-20010904/DTD/svg10.dtd">
<svg version="1.0" xmlns="http://www.w3.org/2000/svg"
 width="256.000000pt" height="256.000000pt" viewBox="0 0 256.000000 256.000000"
 preserveAspectRatio="xMidYMid meet">
<metadata>
Created by potrace 1.14, written by Peter Selinger 2001-2017
</metadata>
<g transform="translate(0.000000,256.000000) scale(0.100000,-0.100000)"
fill="#000000" stroke="none">
<path d="M461 2197 c-1 -10 -4 -16 -8 -14 -5 3 -8 -12 -8 -33 0 -21 3 -36 7
-34 4 2 10 0 13 -6 4 -6 3 -10 -2 -9 -27 5 -34 -2 -19 -17 13 -12 14 -20 5
-36 -8 -15 -8 -19 0 -14 8 5 8 0 1 -18 -6 -17 -6 -26 3 -30 7 -2 4 -5 -6 -5
-16 -1 -17 -3 -4 -15 11 -11 13 -26 7 -55 -4 -22 -4 -38 1 -36 4 3 11 1 14 -5
4 -6 3 -10 -2 -9 -27 5 -34 -2 -17 -18 11 -11 13 -18 5 -21 -6 -2 -11 -8 -11
-13 0 -6 4 -8 8 -5 9 5 6 -58 -3 -82 -2 -7 -1 -10 4 -7 5 3 13 1 16 -5 4 -6 3
-10 -2 -9 -4 1 -15 1 -23 0 -12 -1 -12 -3 -2 -10 17 -10 21 -38 12 -72 -4 -15
-4 -32 0 -40 5 -8 2 -18 -8 -27 -9 -7 -12 -11 -6 -8 7 3 14 -1 18 -9 3 -8 1
-15 -5 -15 -6 0 -7 -6 0 -17 6 -12 5 -21 -7 -31 -10 -7 -11 -11 -4 -7 6 3 12
3 13 -2 0 -4 2 -18 3 -30 2 -13 -1 -23 -6 -23 -5 0 -6 -6 -1 -12 10 -17 13
-39 5 -34 -4 2 -7 -9 -7 -24 0 -15 3 -26 7 -24 4 2 10 0 13 -6 4 -6 3 -10 -2
-9 -27 5 -34 -2 -19 -17 13 -12 14 -20 5 -36 -8 -15 -8 -19 0 -14 8 5 8 0 1
-18 -6 -17 -6 -26 3 -30 7 -2 4 -5 -6 -5 -17 -1 -17 -2 -3 -17 11 -11 13 -21
7 -33 -6 -10 -6 -23 -1 -31 6 -9 3 -19 -8 -28 -9 -7 -12 -11 -6 -8 7 3 14 -1
17 -8 3 -8 1 -17 -6 -20 -7 -2 -4 -5 6 -5 9 -1 17 -5 17 -11 0 -5 7 -10 16
-10 8 0 13 4 10 8 -3 5 8 8 24 8 16 0 27 -3 24 -8 -3 -4 2 -8 11 -8 9 0 14 4
11 8 -3 5 2 9 10 9 8 0 13 -6 10 -13 -3 -8 0 -11 9 -7 8 3 13 8 10 12 -2 4 2
8 10 8 8 0 15 -7 16 -16 0 -12 2 -11 8 3 7 19 8 19 15 0 7 -18 8 -18 21 -1 11
15 13 15 18 2 5 -11 12 -13 30 -6 14 6 29 6 38 0 10 -6 10 -9 2 -9 -7 0 -12
-5 -10 -11 1 -6 -4 -14 -12 -17 -8 -3 -11 0 -7 7 5 7 1 9 -8 5 -9 -3 -14 -10
-11 -14 7 -11 -36 0 -54 14 -11 8 -13 8 -7 -1 6 -12 -4 -17 -26 -15 -3 1 -9
-5 -12 -14 -4 -10 -1 -13 7 -9 6 4 3 -1 -8 -10 -18 -14 -20 -14 -27 2 -6 16
-7 16 -8 -2 -1 -20 -1 -20 -15 -1 -13 17 -15 17 -15 3 0 -13 -5 -15 -25 -7
-18 7 -23 6 -19 -4 3 -7 -2 -16 -11 -20 -10 -3 -13 -11 -9 -18 5 -8 0 -7 -11
2 -10 8 -16 10 -12 4 4 -7 0 -14 -8 -18 -8 -3 -17 -1 -20 4 -9 15 -28 12 -22
-4 3 -7 -1 -23 -9 -35 -14 -19 -14 -22 1 -27 14 -6 14 -8 -1 -19 -14 -9 -14
-14 -4 -20 9 -6 11 -4 5 5 -5 9 -4 11 3 6 9 -5 8 -14 -4 -31 -10 -15 -12 -25
-5 -30 6 -3 11 -11 11 -16 0 -6 -6 -7 -12 -3 -8 5 -8 1 1 -10 12 -14 12 -19 2
-26 -11 -6 -11 -8 -1 -12 8 -2 14 -12 16 -21 1 -9 -2 -15 -6 -12 -5 3 -11 1
-15 -5 -3 -5 -2 -10 3 -10 6 0 13 -7 16 -16 3 -8 2 -12 -3 -9 -5 3 -12 1 -16
-5 -3 -5 -1 -10 4 -10 6 0 11 -5 11 -11 0 -5 -6 -7 -12 -3 -8 5 -7 0 2 -11 8
-10 14 -26 12 -37 -3 -14 3 -18 23 -18 15 0 24 4 20 10 -3 6 -1 10 4 10 6 0
11 -7 11 -15 0 -8 5 -15 11 -15 5 0 7 6 3 12 -5 8 0 7 11 -2 17 -14 18 -13 11
4 -7 20 -7 20 15 0 12 -10 19 -13 15 -6 -4 6 -2 12 3 12 6 0 11 -4 11 -10 0
-5 7 -6 17 -3 11 4 14 3 9 -5 -4 -7 -2 -12 3 -12 6 0 11 -6 11 -13 0 -15 40
-18 40 -2 0 5 7 1 15 -9 14 -19 21 -11 16 17 -1 5 3 6 9 2 6 -3 8 -9 6 -13 -2
-4 9 -7 24 -7 15 0 26 3 24 7 -5 8 17 5 34 -5 6 -5 12 -4 12 0 0 12 51 10 70
-2 8 -5 21 -10 28 -11 7 -1 20 -11 30 -21 9 -10 13 -12 7 -4 -8 12 -3 11 19
-3 16 -10 26 -14 22 -8 -3 5 1 13 9 16 9 3 18 -1 22 -10 4 -12 8 -13 14 -3 6
10 11 10 25 -2 11 -9 15 -9 10 -1 -4 6 -3 12 3 12 5 0 13 -5 16 -11 5 -7 15
-5 30 5 17 12 26 13 31 4 5 -7 3 -8 -6 -3 -8 5 -11 4 -6 -3 9 -14 38 -3 30 12
-3 6 1 3 9 -7 11 -13 16 -15 19 -5 4 10 9 10 23 -2 11 -9 16 -10 11 -2 -4 6
-3 12 1 12 5 0 15 -6 22 -12 10 -9 12 -9 7 -1 -3 6 -1 15 5 19 8 4 9 3 5 -5
-4 -6 -1 -14 8 -17 8 -3 13 -14 11 -24 -3 -14 1 -18 16 -15 10 2 24 7 29 10 6
3 10 0 10 -7 0 -9 3 -9 10 2 9 13 10 13 10 0 0 -13 1 -13 10 0 6 9 13 11 18 5
10 -13 35 -18 27 -5 -3 5 -1 10 4 10 6 0 11 -5 11 -11 0 -8 5 -8 15 1 12 10
15 10 15 -1 0 -11 2 -11 10 1 9 13 10 13 10 0 0 -13 1 -13 10 0 9 13 11 13 20
0 9 -13 10 -13 10 0 0 12 2 13 9 1 7 -11 9 -11 14 0 5 12 6 12 6 0 1 -10 4
-11 15 -2 11 9 16 9 22 0 4 -8 3 -9 -4 -5 -19 11 -14 -5 6 -21 9 -8 11 -11 3
-7 -10 5 -12 3 -7 -5 6 -9 11 -9 24 1 14 11 15 10 9 -7 -7 -20 -7 -20 8 -1 9
12 15 15 15 7 0 -11 3 -11 17 0 9 8 14 9 10 3 -4 -7 0 -15 9 -18 8 -3 13 -2 9
3 -10 17 20 18 45 2 23 -14 24 -14 13 0 -10 13 -10 16 2 16 8 0 15 -5 15 -10
0 -5 8 -3 17 4 9 8 14 9 10 3 -4 -7 0 -15 9 -18 8 -3 13 -2 10 3 -3 5 1 12 10
15 10 4 13 2 8 -7 -5 -8 -2 -7 9 2 13 10 14 17 7 26 -8 10 -6 13 7 11 10 0 17
5 15 12 -1 8 2 11 8 7 6 -3 7 -12 4 -18 -5 -8 -3 -8 7 1 16 14 33 16 24 2 -3
-6 1 -7 9 -4 9 3 13 10 10 15 -3 5 2 12 11 15 9 4 14 13 11 20 -5 14 18 9 41
-8 7 -5 14 -5 18 2 3 6 11 7 17 4 7 -4 8 -2 4 5 -6 9 -11 9 -22 0 -9 -7 -14
-8 -14 -1 0 6 9 14 20 17 11 3 20 11 20 16 0 6 5 7 10 4 6 -3 10 -2 10 2 0 5
16 8 35 7 19 -1 34 1 33 5 -1 3 2 14 7 24 6 15 10 15 23 5 13 -11 14 -11 8 1
-7 10 -3 12 15 6 13 -4 21 -4 17 0 -4 4 -1 14 7 21 15 15 10 48 -6 38 -5 -3
-6 2 -3 10 3 9 11 13 18 9 6 -3 6 -1 -1 8 -17 17 -17 43 0 33 7 -5 6 0 -3 11
-17 21 -17 24 2 36 10 7 10 9 1 9 -7 0 -13 7 -13 16 0 9 5 12 13 8 10 -6 10
-4 0 7 -7 7 -13 19 -13 27 0 8 5 10 13 6 10 -6 10 -4 0 7 -16 16 -17 43 -2 33
6 -3 3 6 -7 22 -11 15 -14 25 -7 21 6 -4 14 -3 18 3 3 5 2 10 -3 10 -6 0 -12
7 -16 15 -3 8 -2 14 2 14 21 -3 24 3 6 17 -10 8 -14 13 -8 10 7 -3 15 1 18 10
3 8 2 12 -4 9 -14 -9 -12 8 3 24 10 11 9 12 -2 6 -10 -6 -12 -2 -7 12 8 24
-18 51 -30 32 -4 -7 -3 -9 4 -5 6 3 13 2 17 -3 3 -6 -6 -8 -22 -4 -16 3 -33 6
-40 7 -7 1 -16 5 -19 9 -4 4 -13 2 -19 -3 -13 -11 -50 -9 -61 3 -4 4 -13 2
-20 -4 -8 -6 -20 -9 -28 -6 -7 3 -18 1 -24 -5 -6 -6 -12 -6 -17 3 -6 8 -4 10
6 4 8 -5 11 -4 6 1 -5 5 -14 9 -20 10 -7 0 -21 2 -32 3 -17 1 -18 3 -5 11 8 5
11 10 6 10 -6 0 -1 6 9 14 11 8 23 12 27 10 4 -3 5 3 1 12 -4 12 -3 15 5 10 7
-4 12 -2 12 3 0 6 -7 11 -15 11 -8 0 -15 5 -15 11 0 5 6 7 13 3 7 -5 6 0 -3
11 -14 17 -13 18 3 12 13 -5 16 -3 10 6 -13 22 -12 39 3 33 8 -3 14 -1 14 5 0
6 5 7 12 3 7 -5 9 -2 5 8 -3 9 0 21 6 28 9 9 9 11 1 7 -7 -4 -15 0 -18 9 -3 8
-2 12 3 9 5 -3 12 -1 16 5 3 5 0 10 -7 10 -9 0 -9 3 2 10 11 7 12 10 2 10 -9
0 -11 7 -6 23 4 12 7 28 7 35 0 6 4 12 9 12 5 0 7 4 4 9 -3 5 3 11 14 14 11 3
20 10 20 17 0 6 -5 8 -10 5 -17 -10 -7 16 15 39 11 12 23 17 27 12 3 -5 5 4 5
20 -1 16 -6 32 -12 36 -6 5 -3 8 6 8 9 0 22 7 29 15 7 8 15 13 19 11 4 -3 7 4
7 14 0 10 -3 17 -7 14 -4 -2 -9 3 -12 11 -4 9 -1 12 7 9 7 -3 13 2 13 10 0 8
-4 13 -9 10 -13 -8 -10 10 5 25 6 8 7 11 1 8 -14 -8 -13 65 1 75 6 5 5 8 -2 8
-7 0 -13 5 -13 11 0 5 6 7 13 3 6 -4 3 3 -7 15 -16 18 -17 21 -3 16 13 -6 15
-2 11 21 -3 16 -7 30 -9 33 -2 2 0 13 6 24 7 12 7 17 1 13 -11 -7 -8 56 4 75
4 7 3 9 -3 6 -12 -8 -10 54 3 74 4 8 3 9 -4 5 -15 -9 -15 -1 -1 26 8 16 8 19
-1 13 -9 -5 -10 -1 -5 14 5 18 3 22 -12 19 -13 -2 -19 4 -21 25 -3 22 -6 26
-17 17 -10 -8 -15 -8 -21 1 -5 8 -3 10 7 4 8 -5 11 -4 6 0 -10 12 -47 14 -47
3 0 -5 -6 -3 -14 4 -11 10 -11 16 -2 27 8 12 8 13 -1 7 -8 -4 -13 -2 -13 4 0
6 -4 8 -10 5 -5 -3 -10 -1 -10 5 0 6 -5 8 -10 5 -6 -4 -8 -11 -5 -16 3 -5 -1
-6 -9 -3 -9 3 -16 10 -16 15 0 5 -5 9 -11 9 -5 0 -7 -5 -3 -12 4 -6 3 -8 -4
-5 -5 4 -8 17 -4 29 3 14 2 19 -6 14 -7 -4 -12 -3 -12 2 0 10 -46 10 -56 -1
-12 -12 -26 -8 -18 6 5 8 2 8 -9 -2 -14 -11 -17 -11 -17 0 0 11 -2 11 -10 -1
-9 -13 -10 -13 -10 0 0 13 -1 13 -10 0 -8 -13 -10 -13 -10 -1 0 12 -3 12 -12
3 -14 -14 -32 -16 -24 -4 3 5 -1 9 -9 9 -8 0 -15 -4 -15 -8 0 -4 -11 -6 -25
-5 -14 0 -25 6 -25 11 0 6 -5 3 -10 -5 -9 -13 -10 -13 -10 0 0 13 -1 13 -10 0
-6 -9 -13 -11 -17 -5 -11 13 -36 18 -28 5 3 -5 1 -10 -4 -10 -6 0 -11 5 -11
11 0 8 -4 8 -14 0 -11 -9 -15 -9 -19 1 -4 11 -6 10 -6 0 -1 -8 -6 -10 -13 -5
-21 12 -38 12 -38 0 0 -7 -5 -5 -10 3 -9 13 -10 13 -10 0 0 -12 -2 -12 -9 -1
-6 10 -10 10 -16 1 -6 -9 -10 -9 -16 1 -7 12 -9 12 -9 0 0 -11 -3 -11 -17 0
-11 10 -14 10 -9 2 4 -7 2 -13 -3 -13 -6 0 -11 4 -11 8 0 4 -9 8 -20 8 -11 0
-20 -4 -20 -8 0 -4 -5 -8 -11 -8 -5 0 -8 4 -5 8 2 4 -11 7 -30 7 -19 0 -34 -3
-34 -7 0 -5 -5 -8 -11 -8 -5 0 -8 4 -5 8 2 4 -11 7 -30 7 -19 0 -34 -3 -34 -7
0 -5 -5 -8 -11 -8 -5 0 -8 4 -5 8 2 4 -11 7 -30 7 -19 0 -34 -3 -34 -7 0 -5
-5 -8 -11 -8 -5 0 -8 4 -5 8 2 4 -8 8 -24 7 -15 0 -26 -3 -23 -7 2 -5 -1 -8
-6 -8 -6 0 -11 5 -11 11 0 8 -4 8 -14 0 -11 -9 -15 -9 -19 1 -4 10 -6 10 -6 1
-1 -7 -6 -13 -12 -13 -5 0 -7 6 -3 13 5 8 2 8 -9 -2 -14 -11 -17 -11 -17 0 0
11 -2 11 -10 -1 -9 -13 -10 -13 -10 0 0 13 -1 13 -10 0 -8 -12 -10 -12 -10 -1
0 11 -3 11 -15 1 -12 -10 -15 -10 -15 1 0 11 -2 11 -10 -1 -9 -13 -10 -13 -10
0 0 13 -1 13 -10 0 -6 -9 -13 -11 -17 -5 -11 13 -36 18 -28 5 3 -5 1 -10 -4
-10 -6 0 -11 5 -11 11 0 8 -4 8 -14 0 -11 -9 -15 -9 -19 1 -4 10 -6 10 -6 1
-1 -7 -6 -13 -12 -13 -5 0 -8 4 -5 8 2 4 -8 8 -24 7 -15 0 -26 -3 -23 -7 2 -5
-1 -8 -6 -8 -6 0 -11 4 -11 8 0 5 -7 9 -15 9 -8 0 -12 -4 -9 -9 3 -4 1 -8 -5
-8 -5 0 -12 4 -15 9 -7 10 -25 9 -43 -2 -6 -4 -14 -1 -16 5 -3 8 -6 6 -6 -5z
m1353 -5 c3 -5 -1 -9 -9 -9 -8 0 -12 4 -9 9 3 4 7 8 9 8 2 0 6 -4 9 -8z m246
-676 c0 -2 -8 -10 -17 -17 -16 -13 -17 -12 -4 4 13 16 21 21 21 13z m-185
-546 c3 -6 -1 -7 -9 -4 -18 7 -21 14 -7 14 6 0 13 -4 16 -10z m-1455 -230 c0
-5 -5 -10 -11 -10 -5 0 -7 5 -4 10 3 6 8 10 11 10 2 0 4 -4 4 -10z m1660 -254
c0 -2 -8 -10 -17 -17 -16 -13 -17 -12 -4 4 13 16 21 21 21 13z m-1195 -36 c3
-5 1 -10 -4 -10 -6 0 -11 5 -11 10 0 6 2 10 4 10 3 0 8 -4 11 -10z m185 -34
c0 -3 -4 -8 -10 -11 -5 -3 -10 -1 -10 4 0 6 5 11 10 11 6 0 10 -2 10 -4z"/>
</g>
</svg>
